<?xml version="1.0" encoding="UTF-8" standalone="no"?><!-- Generator: Gravit.io --><svg xmlns="http://www.w3.org/2000/svg" xmlns:xlink="http://www.w3.org/1999/xlink" style="isolation:isolate" viewBox="0 0 28 18" width="28pt" height="18pt"><defs><clipPath id="_clipPath_ipRcJ5DwZgM6fT6XSH13ypnhTQ57Emnm"><rect width="28" height="18"/></clipPath></defs><g clip-path="url(#_clipPath_ipRcJ5DwZgM6fT6XSH13ypnhTQ57Emnm)"><g><path d=" M 0 0 L 0 4 L 4 4 L 4 0 L 0 0 Z  M 4 4 L 4 8 L 8 8 L 8 4 L 4 4 Z  M 8 8 L 8 12 L 12 12 L 12 8 L 8 8 Z  M 16 8 L 16 12 L 20 12 L 20 8 L 16 8 Z  M 20 4 L 20 8 L 24 8 L 24 4 L 20 4 Z  M 24 0 L 24 4 L 28 4 L 28 0 L 24 0 Z  M 12 12 L 12 16 L 16 16 L 16 12 L 12 12 Z " fill-rule="evenodd" fill="rgb(255,255,255)"/><path d=" M 0 6 L 4 6 L 4 4 L 0 4 L 0 6 Z  M 4 10 L 8 10 L 8 8 L 4 8 L 4 10 Z  M 8 14 L 12 14 L 12 12 L 8 12 L 8 14 Z  M 12 18 L 16 18 L 16 16 L 12 16 L 12 18 Z  M 16 14 L 20 14 L 20 12 L 16 12 L 16 14 Z  M 20 10 L 24 10 L 24 8 L 20 8 L 20 10 Z  M 24 6 L 28 6 L 28 4 L 24 4 L 24 6 Z " fill-rule="evenodd" fill="rgb(39,39,39)"/></g></g></svg>