<?xml version="1.0" encoding="UTF-8" standalone="no"?><!-- Generator: Gravit.io --><svg xmlns="http://www.w3.org/2000/svg" xmlns:xlink="http://www.w3.org/1999/xlink" style="isolation:isolate" viewBox="0 0 28 18" width="28pt" height="18pt"><defs><clipPath id="_clipPath_K0004VpVfEuM5jnCO8bBCqHveFNApNiz"><rect width="28" height="18"/></clipPath></defs><g clip-path="url(#_clipPath_K0004VpVfEuM5jnCO8bBCqHveFNApNiz)"><g><path d=" M 0 16 L 0 12 L 4 12 L 4 16 L 0 16 Z  M 4 12 L 4 8 L 8 8 L 8 12 L 4 12 Z  M 8 8 L 8 4 L 12 4 L 12 8 L 8 8 Z  M 16 8 L 16 4 L 20 4 L 20 8 L 16 8 Z  M 20 12 L 20 8 L 24 8 L 24 12 L 20 12 Z  M 24 16 L 24 12 L 28 12 L 28 16 L 24 16 Z  M 12 4 L 12 0 L 16 0 L 16 4 L 12 4 Z " fill-rule="evenodd" fill="rgb(255,255,255)"/><path d=" M 0 16 L 4 16 L 4 18 L 0 18 L 0 16 Z  M 4 12 L 8 12 L 8 14 L 4 14 L 4 12 Z  M 8 8 L 12 8 L 12 10 L 8 10 L 8 8 Z  M 12 4 L 16 4 L 16 6 L 12 6 L 12 4 Z  M 16 8 L 20 8 L 20 10 L 16 10 L 16 8 Z  M 20 12 L 24 12 L 24 14 L 20 14 L 20 12 Z  M 24 16 L 28 16 L 28 18 L 24 18 L 24 16 Z " fill-rule="evenodd" fill="rgb(39,39,39)"/></g></g></svg>