<?xml version="1.0" encoding="UTF-8" standalone="no"?><!-- Generator: Gravit.io --><svg xmlns="http://www.w3.org/2000/svg" xmlns:xlink="http://www.w3.org/1999/xlink" style="isolation:isolate" viewBox="0 0 54 54" width="54pt" height="54pt"><defs><clipPath id="_clipPath_QhBLh2zyKHPYK7Jj509jeyCufpHxaRzN"><rect width="54" height="54"/></clipPath></defs><g clip-path="url(#_clipPath_QhBLh2zyKHPYK7Jj509jeyCufpHxaRzN)"><rect width="54" height="54" style="fill:rgb(0,0,0)" fill-opacity="0"/><path d=" M 20 0 L 34 0 L 34 2 L 38 2 L 38 4 L 42 4 L 42 6 L 44 6 L 44 8 L 46 8 L 46 10 L 48 10 L 48 12 L 50 12 L 50 16 L 52 16 L 52 20 L 54 20 L 54 34 L 52 34 L 52 40 L 50 40 L 50 42 L 48 42 L 48 46 L 46 46 L 46 48 L 42 48 L 42 50 L 40 50 L 40 52 L 36 52 L 36 54 L 34 54 L 34 42 L 38 42 L 38 40 L 40 40 L 40 38 L 42 38 L 42 36 L 44 36 L 44 30 L 46 30 L 46 24 L 44 24 L 44 20 L 42 20 L 42 18 L 44 18 L 44 16 L 42 16 L 42 12 L 36 12 L 36 14 L 28 14 M 20 2 L 16 2 L 16 4 L 12 4 L 12 6 L 10 6 L 10 8 L 8 8 L 8 10 L 6 10 L 6 12 L 4 12 L 4 16 L 2 16 L 2 20 L 0 20 L 0 34 L 2 34 L 2 40 L 4 40 L 4 42 L 6 42 L 6 46 L 8 46 L 8 48 L 12 48 L 12 50 L 14 50 L 14 52 L 18 52 L 18 54 L 20 54 M 20 54 L 20 50 L 14 50 L 14 48 L 12 48 L 12 46 L 8 46 L 8 42 L 6 42 L 6 40 L 8 40 L 8 38 L 14 38 L 14 40 L 16 40 L 16 42 L 18 42 L 18 44 L 20 44 L 20 42 L 22 42 L 22 40 L 18 40 L 18 38 L 16 38 L 16 36 L 14 36 L 14 34 L 12 34 L 12 30 L 10 30 L 10 24 L 12 24 L 12 14 L 14 14 L 14 12 L 20 12 L 20 12 M 20 14 L 20 0 L 28 14 L 20 14 Z " fill-rule="evenodd" fill="rgb(0,0,0)"/></g></svg>