<?xml version="1.0" encoding="UTF-8" standalone="no"?><!-- Generator: Gravit.io --><svg xmlns="http://www.w3.org/2000/svg" xmlns:xlink="http://www.w3.org/1999/xlink" style="isolation:isolate" viewBox="0 0 16 16" width="16pt" height="16pt"><defs><clipPath id="_clipPath_SWU30JYlfT2qMwpWo6wWIAmhhpairU0p"><rect width="16" height="16"/></clipPath></defs><g clip-path="url(#_clipPath_SWU30JYlfT2qMwpWo6wWIAmhhpairU0p)"><rect width="16" height="16" style="fill:rgb(0,0,0)" fill-opacity="0"/><g><g><path d=" M 4 0 L 6 0 L 6 2 L 4 2 L 4 0 Z  M 8 0 L 10 0 L 10 2 L 8 2 L 8 0 Z  M 14 2 L 16 2 L 16 4 L 14 4 L 14 2 Z " fill-rule="evenodd" fill="rgb(40,189,69)"/><path d=" M 0 0 L 2 0 L 2 2 L 0 2 L 0 0 Z  M 6 0 L 8 0 L 8 2 L 6 2 L 6 0 Z  M 12 0 L 14 0 L 14 2 L 12 2 L 12 0 Z  M 14 4 L 16 4 L 16 6 L 14 6 L 14 4 Z " fill-rule="evenodd" fill="rgb(61,192,86)"/><path d=" M 0 2 L 2 2 L 2 4 L 0 4 L 0 2 Z  M 2 0 L 4 0 L 4 2 L 2 2 L 2 0 Z  M 4 2 L 6 2 L 6 4 L 4 4 L 4 2 Z  M 8 2 L 10 2 L 10 4 L 8 4 L 8 2 Z  M 8 4 L 10 4 L 10 6 L 8 6 L 8 4 Z  M 10 0 L 12 0 L 12 2 L 10 2 L 10 0 Z " fill-rule="evenodd" fill="rgb(0,180,67)"/><path d=" M 14 0 L 16 0 L 16 2 L 14 2 L 14 0 Z  M 6 2 L 8 2 L 8 4 L 6 4 L 6 2 Z  M 10 2 L 12 2 L 12 4 L 10 4 L 10 2 Z " fill-rule="evenodd" fill="rgb(0,162,67)"/></g><g><path d=" M 0 10 L 2 10 L 2 12 L 0 12 L 0 10 Z  M 6 6 L 8 6 L 8 8 L 6 8 L 6 6 Z  M 4 12 L 6 12 L 6 14 L 4 14 L 4 12 Z  M 8 8 L 10 8 L 10 10 L 8 10 L 8 8 Z  M 6 10 L 8 10 L 8 12 L 6 12 L 6 10 Z  M 8 12 L 10 12 L 10 14 L 8 14 L 8 12 Z  M 14 10 L 16 10 L 16 12 L 14 12 L 14 10 Z " fill-rule="evenodd" fill="rgb(209,132,90)"/><path d=" M 2 6 L 4 6 L 4 8 L 2 8 L 2 6 Z  M 0 8 L 2 8 L 2 10 L 0 10 L 0 8 Z  M 2 10 L 4 10 L 4 14 L 2 14 L 2 10 Z  M 0 14 L 2 14 L 2 16 L 0 16 L 0 14 Z  M 6 12 L 8 12 L 8 16 L 6 16 L 6 12 Z  M 10 10 L 12 10 L 12 12 L 10 12 L 10 10 Z  M 8 6 L 10 6 L 10 8 L 8 8 L 8 6 Z  M 4 10 L 6 10 L 6 12 L 4 12 L 4 10 Z  M 12 14 L 16 14 L 16 16 L 12 16 L 12 14 Z " fill-rule="evenodd" fill="rgb(133,79,48)"/><path d=" M 0 6 L 2 6 L 2 8 L 0 8 L 0 6 Z  M 4 6 L 6 6 L 6 10 L 4 10 L 4 6 Z  M 6 8 L 8 8 L 8 10 L 6 10 L 6 8 Z  M 10 6 L 14 6 L 14 8 L 10 8 L 10 6 Z  M 0 12 L 2 12 L 2 14 L 0 14 L 0 12 Z  M 4 14 L 6 14 L 6 16 L 4 16 L 4 14 Z  M 12 10 L 14 10 L 14 12 L 12 12 L 12 10 Z  M 14 12 L 16 12 L 16 14 L 14 14 L 14 12 Z  M 10 12 L 12 12 L 12 14 L 10 14 L 10 12 Z " fill-rule="evenodd" fill="rgb(166,107,70)"/><path d=" M 0 4 L 2 4 L 2 6 L 0 6 L 0 4 Z  M 2 2 L 4 2 L 4 4 L 2 4 L 2 2 Z  M 4 4 L 8 4 L 8 6 L 4 6 L 4 4 Z  M 10 4 L 14 4 L 14 6 L 10 6 L 10 4 Z  M 12 2 L 14 2 L 14 4 L 12 4 L 12 2 Z  M 14 6 L 16 6 L 16 10 L 14 10 L 14 6 Z  M 10 8 L 14 8 L 14 10 L 10 10 L 10 8 Z  M 2 8 L 4 8 L 4 10 L 2 10 L 2 8 Z  M 12 12 L 14 12 L 14 14 L 12 14 L 12 12 Z  M 8 14 L 12 14 L 12 16 L 8 16 L 8 14 Z  M 2 14 L 4 14 L 4 16 L 2 16 L 2 14 Z " fill-rule="evenodd" fill="rgb(114,68,41)"/><path d=" M 2 4 L 4 4 L 4 6 L 2 6 L 2 4 Z  M 8 10 L 10 10 L 10 12 L 8 12 L 8 10 Z " fill-rule="evenodd" fill="rgb(108,109,109)"/></g></g></g></svg>