<?xml version="1.0" encoding="UTF-8" standalone="no"?><!-- Generator: Gravit.io --><svg xmlns="http://www.w3.org/2000/svg" xmlns:xlink="http://www.w3.org/1999/xlink" style="isolation:isolate" viewBox="0 0 40 54" width="40pt" height="54pt"><defs><clipPath id="_clipPath_j75NCE3yvHqZIDVKaZSkOkp6xlpVUOW4"><rect width="40" height="54"/></clipPath></defs><g clip-path="url(#_clipPath_j75NCE3yvHqZIDVKaZSkOkp6xlpVUOW4)"><g><g><path d=" M 14 16 L 14 18 L 16 18 L 16 20 L 18 20 L 18 18 L 22 18 L 22 20 L 24 20 L 24 18 L 26 18 L 26 16 L 24 16 L 24 18 L 22 18 L 22 16 L 18 16 L 18 18 L 16 18 L 16 16 L 14 16 Z  M 34 14 L 34 10 L 32 10 L 32 8 L 30 8 L 30 6 L 26 6 L 26 8 L 30 8 L 30 10 L 32 10 L 32 14 L 34 14 Z " fill-rule="evenodd" fill="rgb(248,244,215)"/><path d=" M 32 4 L 14 4 L 14 6 L 10 6 L 10 8 L 8 8 L 8 10 L 6 10 L 6 28 L 8 28 L 8 32 L 10 32 L 10 34 L 12 34 L 12 38 L 30 38 L 30 36 L 32 36 L 32 34 L 34 34 L 34 30 L 36 30 L 36 26 L 38 26 L 38 12 L 36 12 L 36 8 L 34 8 L 34 6 L 32 6 L 32 4 Z  M 16 38 L 16 32 L 14 32 L 14 26 L 12 26 L 12 20 L 14 20 L 14 26 L 16 26 L 16 32 L 24 32 L 24 26 L 26 26 L 26 20 L 28 20 L 28 26 L 26 26 L 26 32 L 24 32 L 24 38 L 22 38 L 22 34 L 18 34 L 18 38 L 16 38 Z  M 14 16 L 14 18 L 16 18 L 16 20 L 18 20 L 18 18 L 22 18 L 22 20 L 24 20 L 24 18 L 26 18 L 26 16 L 24 16 L 24 18 L 22 18 L 22 16 L 18 16 L 18 18 L 16 18 L 16 16 L 14 16 Z  M 34 14 L 34 10 L 32 10 L 32 8 L 30 8 L 30 6 L 26 6 L 26 8 L 30 8 L 30 10 L 32 10 L 32 14 L 34 14 Z " fill-rule="evenodd" fill="rgb(248,222,144)"/><path d=" M 28 4 L 14 4 L 14 6 L 10 6 L 10 8 L 8 8 L 8 10 L 6 10 L 6 28 L 8 28 L 8 32 L 10 32 L 10 34 L 12 34 L 12 38 L 10 38 L 10 36 L 8 36 L 8 34 L 6 34 L 6 30 L 4 30 L 4 26 L 2 26 L 2 12 L 4 12 L 4 8 L 6 8 L 6 6 L 8 6 L 8 4 L 12 4 L 12 2 L 28 2 L 28 4 Z  M 16 38 L 16 32 L 14 32 L 14 26 L 12 26 L 12 20 L 14 20 L 14 26 L 16 26 L 16 32 L 24 32 L 24 26 L 26 26 L 26 20 L 28 20 L 28 26 L 26 26 L 26 32 L 24 32 L 24 38 L 22 38 L 22 34 L 18 34 L 18 38 L 16 38 Z " fill-rule="evenodd" fill="rgb(247,206,101)"/><path d=" M 8 2 L 12 2 L 12 4 L 8 4 L 8 2 Z  M 6 4 L 8 4 L 8 6 L 6 6 L 6 4 Z  M 12 0 L 28 0 L 28 2 L 12 2 L 12 0 Z  M 4 6 L 6 6 L 6 8 L 4 8 L 4 6 Z  M 2 8 L 4 8 L 4 12 L 2 12 L 2 8 Z  M 0 12 L 2 12 L 2 26 L 0 26 L 0 12 Z  M 2 26 L 4 26 L 4 30 L 2 30 L 2 26 Z  M 4 30 L 6 30 L 6 34 L 4 34 L 4 30 Z  M 6 34 L 8 34 L 8 36 L 6 36 L 6 34 Z  M 8 36 L 10 36 L 10 38 L 8 38 L 8 36 Z  M 32 2 L 28 2 L 28 4 L 32 4 L 32 2 Z  M 34 4 L 32 4 L 32 6 L 34 6 L 34 4 Z  M 36 6 L 34 6 L 34 8 L 36 8 L 36 6 Z  M 38 8 L 36 8 L 36 12 L 38 12 L 38 8 Z  M 40 12 L 38 12 L 38 26 L 40 26 L 40 12 Z  M 38 26 L 36 26 L 36 30 L 38 30 L 38 26 Z  M 36 30 L 34 30 L 34 34 L 36 34 L 36 30 Z  M 34 34 L 32 34 L 32 36 L 34 36 L 34 34 Z  M 32 36 L 30 36 L 30 38 L 32 38 L 32 36 Z  M 8 38 L 30 38 L 30 40 L 8 40 L 8 38 Z " fill-rule="evenodd" fill="rgb(236,190,105)"/></g><g><path d=" M 28 40 L 12 40 L 12 44 L 10 44 L 10 46 L 12 46 L 12 50 L 28 50 L 28 48 L 14 48 L 14 46 L 30 46 L 30 44 L 14 44 L 14 42 L 28 42 L 28 40 Z " fill="rgb(225,226,229)"/><path d=" M 12 40 L 12 44 L 10 44 L 10 46 L 12 46 L 12 50 L 28 50 L 28 52 L 10 52 L 10 48 L 8 48 L 8 42 L 10 42 L 10 40 L 12 40 Z " fill="rgb(137,153,178)"/><path d=" M 8 40 L 8 42 L 6 42 L 6 48 L 8 48 L 8 52 L 10 52 L 10 54 L 28 54 L 28 52 L 30 52 L 30 48 L 32 48 L 32 42 L 30 42 L 30 40 L 28 40 L 28 42 L 14 42 L 14 44 L 30 44 L 30 46 L 14 46 L 14 48 L 28 48 L 28 52 L 10 52 L 10 48 L 8 48 L 8 42 L 10 42 L 10 40 L 8 40 Z " fill="rgb(58,66,101)"/></g></g></g></svg>