<?xml version="1.0" encoding="UTF-8" standalone="no"?><!-- Generator: Gravit.io --><svg xmlns="http://www.w3.org/2000/svg" xmlns:xlink="http://www.w3.org/1999/xlink" style="isolation:isolate" viewBox="0 0 28 26" width="28pt" height="26pt"><defs><clipPath id="_clipPath_oQG6w6h2HcgDQbuWKxYa0Grit5Xlw1zU"><rect width="28" height="26"/></clipPath></defs><g clip-path="url(#_clipPath_oQG6w6h2HcgDQbuWKxYa0Grit5Xlw1zU)"><rect width="28" height="26" style="fill:rgb(0,0,0)" fill-opacity="0"/><g><path d=" M 28 22 L 28 0 L 8 0 L 8 20 L 16 20 L 16 22 L 6 22 L 6 24 L 18 24 L 18 22 L 24 22 L 24 24 L 26 24 L 26 22 L 28 22 Z  M 20 2 L 26 2 L 26 4 L 20 4 L 20 2 Z  M 20 6 L 26 6 L 26 8 L 20 8 L 20 6 Z  M 20 12 L 26 12 L 26 16 L 20 16 L 20 12 Z  M 20 18 L 26 18 L 26 20 L 20 20 L 20 18 Z  M 18 16 L 10 16 L 10 18 L 18 18 L 18 16 Z  M 18 12 L 18 14 L 10 14 L 10 12 L 18 12 Z  M 18 10 L 10 10 L 10 2 L 18 2 L 18 10 Z " fill-rule="evenodd" fill="rgb(255,243,225)"/><path d=" M 20 18 L 26 18 L 26 20 L 20 20 L 20 18 Z  M 20 12 L 26 12 L 26 16 L 20 16 L 20 12 Z  M 20 6 L 26 6 L 26 8 L 20 8 L 20 6 Z  M 20 2 L 26 2 L 26 4 L 20 4 L 20 2 Z  M 10 2 L 18 2 L 18 10 L 10 10 L 10 2 Z  M 10 12 L 18 12 L 18 14 L 10 14 L 10 12 Z  M 10 16 L 18 16 L 18 18 L 10 18 L 10 16 Z  M 8 20 L 16 20 L 16 22 L 8 22 L 8 20 Z  M 28 22 L 26 22 L 26 24 L 24 24 L 24 22 L 18 22 L 18 24 L 4 24 L 4 22 L 2 22 L 2 16 L 0 16 L 0 24 L 2 24 L 2 26 L 26 26 L 26 24 L 28 24 L 28 22 Z " fill-rule="evenodd" fill="rgb(214,199,193)"/><path d=" M 8 0 L 6 0 L 6 16 L 2 16 L 2 22 L 4 22 L 4 24 L 6 24 L 6 22 L 8 22 L 8 0 Z " fill="rgb(160,154,146)"/></g></g></svg>