<?xml version="1.0" encoding="UTF-8" standalone="no"?><!-- Generator: Gravit.io --><svg xmlns="http://www.w3.org/2000/svg" xmlns:xlink="http://www.w3.org/1999/xlink" style="isolation:isolate" viewBox="0 0 8 30" width="8pt" height="30pt"><defs><clipPath id="_clipPath_pq7WEN4iXOTxeavqwyZeVA7Y7qGfp9BF"><rect width="8" height="30"/></clipPath></defs><g clip-path="url(#_clipPath_pq7WEN4iXOTxeavqwyZeVA7Y7qGfp9BF)"><rect width="8" height="30" style="fill:rgb(0,0,0)" fill-opacity="0"/><g><path d=" M 6 0 L 0 0 L 0 16 L 2 16 L 2 2 L 6 2 L 6 0 Z  M 0 22 L 6 22 L 6 24 L 2 24 L 2 28 L 0 28 L 0 22 Z " fill-rule="evenodd" fill="rgb(255,255,255)"/><path d=" M 8 22 L 6 22 L 6 24 L 2 24 L 2 28 L 0 28 L 0 30 L 2 30 L 2 28 L 6 28 L 6 24 L 8 24 L 8 22 Z  M 8 0 L 6 0 L 6 2 L 2 2 L 2 16 L 0 16 L 0 18 L 2 18 L 2 16 L 6 16 L 6 2 L 8 2 L 8 0 Z " fill-rule="evenodd" fill="rgb(246,98,87)"/><path d=" M 8 2 L 8 18 L 2 18 L 2 16 L 6 16 L 6 2 L 8 2 Z  M 8 24 L 6 24 L 6 28 L 2 28 L 2 30 L 8 30 L 8 24 Z " fill-rule="evenodd" fill="rgb(122,34,27)"/></g></g></svg>