<?xml version="1.0" encoding="UTF-8" standalone="no"?><!-- Generator: Gravit.io --><svg xmlns="http://www.w3.org/2000/svg" xmlns:xlink="http://www.w3.org/1999/xlink" style="isolation:isolate" viewBox="0 0 32 32" width="32pt" height="32pt"><defs><clipPath id="_clipPath_7ND0KkDY8JMA4rj20LREQvuFSUH6OVMB"><rect width="32" height="32"/></clipPath></defs><g clip-path="url(#_clipPath_7ND0KkDY8JMA4rj20LREQvuFSUH6OVMB)"><g><path d=" M 18 1 L 12 1 L 12 17 L 14 17 L 14 3 L 18 3 L 18 1 Z  M 12 23 L 18 23 L 18 25 L 14 25 L 14 29 L 12 29 L 12 23 Z " fill-rule="evenodd" fill="rgb(255,255,255)"/><path d=" M 20 23 L 18 23 L 18 25 L 14 25 L 14 29 L 12 29 L 12 31 L 14 31 L 14 29 L 18 29 L 18 25 L 20 25 L 20 23 Z  M 20 1 L 18 1 L 18 3 L 14 3 L 14 17 L 12 17 L 12 19 L 14 19 L 14 17 L 18 17 L 18 3 L 20 3 L 20 1 Z " fill-rule="evenodd" fill="rgb(246,98,87)"/><path d=" M 20 3 L 20 19 L 14 19 L 14 17 L 18 17 L 18 3 L 20 3 Z  M 20 25 L 18 25 L 18 29 L 14 29 L 14 31 L 20 31 L 20 25 Z " fill-rule="evenodd" fill="rgb(122,34,27)"/></g></g></svg>