<?xml version="1.0" encoding="UTF-8" standalone="no"?><!-- Generator: Gravit.io --><svg xmlns="http://www.w3.org/2000/svg" xmlns:xlink="http://www.w3.org/1999/xlink" style="isolation:isolate" viewBox="0 0 30 20" width="30pt" height="20pt"><defs><clipPath id="_clipPath_Y9RahvwHwejejLEC7JnvQR3u1w8f2eP6"><rect width="30" height="20"/></clipPath></defs><g clip-path="url(#_clipPath_Y9RahvwHwejejLEC7JnvQR3u1w8f2eP6)"><rect width="30" height="20" style="fill:rgb(0,0,0)" fill-opacity="0"/><g><path d=" M 2 0 L 2 20 L 2 20 L 8 20 L 8 18 L 4 18 L 4 0 L 2 0 Z  M 12 0 L 12 20 L 18 20 L 18 18 L 14 18 L 14 0 L 12 0 Z  M 22 0 L 22 20 L 28 20 L 28 18 L 24 18 L 24 0 L 22 0 Z " fill-rule="evenodd" fill="rgb(131,102,92)"/><path d=" M 4 0 L 8 0 L 8 18 L 4 18 L 4 0 Z  M 2 18 L 0 18 L 0 14 L 2 14 L 2 18 Z  M 14 0 L 18 0 L 18 18 L 14 18 L 14 0 Z  M 24 0 L 28 0 L 28 18 L 24 18 L 24 0 Z  M 10 4 L 10 8 L 12 8 L 12 4 L 10 4 Z  M 20 10 L 20 14 L 22 14 L 22 10 L 20 10 Z " fill-rule="evenodd" fill="rgb(204,175,162)"/><path d=" M 2 14 L 10 14 L 10 18 L 2 18 L 2 14 Z  M 12 4 L 20 4 L 20 8 L 12 8 L 12 4 Z  M 22 10 L 30 10 L 30 14 L 22 14 L 22 10 Z " fill-rule="evenodd" fill="rgb(255,243,225)"/></g></g></svg>